<?xml version="1.0" encoding="utf-8"?>
<!-- Generator: Adobe Illustrator 23.0.6, SVG Export Plug-In . SVG Version: 6.00 Build 0)  -->
<svg version="1.1" id="Layer_1" xmlns="http://www.w3.org/2000/svg" xmlns:xlink="http://www.w3.org/1999/xlink" x="0px" y="0px"
	 viewBox="0 0 1728 864" style="enable-background:new 0 0 1728 864;" xml:space="preserve">
<style type="text/css">
	.st0{fill:none;stroke:#FF0000;stroke-width:0.1417;stroke-linecap:round;stroke-linejoin:round;stroke-miterlimit:10;}
</style>
<g>
	<polygon class="st0" points="841,222.4 697,222.4 625,347.1 697,471.8 841,471.8 913,347.1 	"/>
	<polygon class="st0" points="739.3,262 614.6,334 614.6,478 739.3,550 864,478 864,334 	"/>
	<polygon class="st0" points="671,347.1 599,471.8 671,596.5 815,596.5 887,471.8 815,347.1 	"/>
	<polygon class="st0" points="654.4,455 654.4,599 779.1,671 903.8,599 903.8,455 779.1,383 	"/>
	<polygon class="st0" points="694,556.7 766,681.4 910,681.4 982,556.7 910,432 766,432 	"/>
	<polygon class="st0" points="779.1,625 903.8,697 1028.5,625 1028.5,481 903.8,409 779.1,481 	"/>
	<polygon class="st0" points="887,641.6 1031,641.6 1103,516.9 1031,392.2 887,392.2 815,516.9 	"/>
	<polygon class="st0" points="988.7,602 1113.4,530 1113.4,386 988.7,314 864,386 864,530 	"/>
	<polygon class="st0" points="1057,516.9 1129,392.2 1057,267.5 913,267.5 841,392.2 913,516.9 	"/>
	<polygon class="st0" points="1073.6,409 1073.6,265 948.9,193 824.2,265 824.2,409 948.9,481 	"/>
	<polygon class="st0" points="1034,307.3 962,182.6 818,182.6 746,307.3 818,432 962,432 	"/>
	<polygon class="st0" points="948.9,239 824.2,167 699.5,239 699.5,383 824.2,455 948.9,383 	"/>
</g>
</svg>
