<?xml version="1.0" encoding="utf-8"?>
<!-- Generator: Adobe Illustrator 21.1.0, SVG Export Plug-In . SVG Version: 6.00 Build 0)  -->
<svg version="1.1" id="Layer_1" xmlns="http://www.w3.org/2000/svg" xmlns:xlink="http://www.w3.org/1999/xlink" x="0px" y="0px"
	 viewBox="0 0 864 864" style="enable-background:new 0 0 864 864;" xml:space="preserve">
<style type="text/css">
	.st0{fill:none;stroke:#000000;stroke-miterlimit:10;}
</style>
<g>
	<path class="st0" d="M64.9,546c-20.7-91.6,28.8-189.5,105.2-244.3s174.4-71.5,268.3-67.2c8.3,0.4,17,1,24.3,5
		c12.6,6.9,18,22,21.3,36c10.5,44.8,9.4,91.3,12,137.2c4.5,79.7,20.3,159.8,56.3,231.1c22.4,44.5,54.1,86.5,98.7,108.7
		c46,23,99.8,22.4,151.2,21.2c0.4-2.3,0.7-4.7,1.1-7"/>
	<path class="st0" d="M780.5,766.4c0.4,0.6,1,0.8,1.5,0.9c3.8,1.1,7.4,1.2,10.4,0.5c-28.6,0-58.1-0.2-86.4-5.3
		c-19.7-3.5-38.8-9.4-56.7-19.1c-24.4-13.2-44.8-32.8-61.7-55.5c-12.5-16.8-23.1-35.3-32.2-54.3c-8.2-17.3-15.4-35-21.6-53.1
		c-13.1-38.1-22-77.9-28.1-117.9c-2.7-17.7-4.8-35.5-6.5-53c-0.2-2.1-0.4-4.2-0.6-6.3c-1.2-14.1-2.2-28.1-3.2-42
		c-2.2-30.4-4.9-60.7-12.8-90.1c-3.6-13.4-9.3-27.8-21.9-34.4c-7.3-3.8-15.9-4.3-24.2-4.6c-91.8-3.3-187.7,13.1-262.6,66.6
		C98.9,352.4,50,447.6,68.9,536.4"/>
	<path class="st0" d="M757.9,766.1c0.8,0.9,2,1,3.1,1c8,0.1,15.5-1.7,21.8-5.2c-26.9-0.6-54.6-1.5-81.4-7.3
		c-18.6-4-36.7-10.2-53.8-20.3c-23.2-13.6-42.5-33.5-58.6-56.3c-11.9-16.9-21.9-35.5-30.5-54.5c-7.8-17.3-14.6-35.1-20.6-53.3
		c-12.6-38.2-21.5-78.1-28.3-117.8c-3-17.6-5.5-35.1-7.7-52.3c-0.3-2-0.5-4.1-0.8-6.1c-1.7-13.7-3.1-27.2-4.5-40.6
		c-3.2-29.3-6.9-58.3-15.5-86.4c-3.9-12.8-9.9-26.6-22.5-32.7c-7.3-3.6-15.9-3.9-24.2-4.1c-89.8-2.3-183.5,13.8-256.9,66
		C104.1,348.4,55.7,440.9,72.8,526.8"/>
	<path class="st0" d="M735.4,765.8c1.3,1.2,3.1,1.2,4.6,1.1c12.1-0.9,23.6-4.7,33.1-10.9c-25.1-1.3-51.1-2.9-76.3-9.3
		c-17.5-4.4-34.7-11.1-50.8-21.4c-21.9-14.1-40.3-34.1-55.5-57.2c-11.2-17-20.7-35.7-28.8-54.7c-7.4-17.4-13.9-35.2-19.6-53.4
		c-12.1-38.3-21-78.3-28.4-117.7c-3.3-17.5-6.2-34.8-9-51.5c-0.3-2-0.6-4-0.9-5.9c-2.1-13.3-3.9-26.3-5.9-39.2
		c-4.2-28.2-8.8-56-18.2-82.7c-4.3-12.2-10.5-25.3-23.1-31.1c-7.3-3.3-15.9-3.4-24.1-3.6c-87.8-1.3-179.3,14.5-251.2,65.4
		c-72,50.9-119.8,140.6-104.5,223.7"/>
	<path class="st0" d="M712.8,765.4c1.7,1.6,4.1,1.4,6.2,1.2c16.3-1.8,31.6-7.6,44.5-16.6c-23.4-1.9-47.6-4.2-71.3-11.2
		c-16.4-4.8-32.6-11.9-47.8-22.6c-20.7-14.5-38-34.8-52.4-58c-10.6-17.1-19.5-35.9-27.1-55c-7-17.4-13.1-35.3-18.6-53.6
		c-11.6-38.4-20.6-78.5-28.6-117.6c-3.6-17.4-6.9-34.5-10.2-50.8c-0.4-1.9-0.8-3.9-1.1-5.8c-2.5-13-4.8-25.5-7.2-37.8
		c-5.1-27-10.7-53.6-20.8-79.1c-4.6-11.6-11.1-24.1-23.8-29.4c-7.4-3.1-15.9-3-24.1-3.1c-85.8-0.3-175,15.1-245.5,64.7
		C114.4,340.4,67.2,427.4,80.7,507.7"/>
	<path class="st0" d="M690.3,765.1c2.1,1.9,5.2,1.7,7.8,1.3c20.4-2.8,39.7-10.6,55.8-22.3c-21.6-2.6-44.1-5.6-66.2-13.2
		c-15.3-5.3-30.5-12.8-44.8-23.7c-19.5-14.9-35.8-35.5-49.3-58.8c-9.9-17.3-18.3-36-25.5-55.2c-6.6-17.5-12.3-35.4-17.6-53.7
		c-11.1-38.5-20.1-78.6-28.7-117.5c-3.8-17.2-7.6-34.2-11.4-50.1c-0.4-1.9-0.9-3.8-1.3-5.6c-3-12.6-5.7-24.6-8.6-36.5
		c-6.1-25.9-12.6-51.2-23.5-75.4c-5-11-11.7-22.9-24.4-27.8c-7.4-2.9-15.8-2.6-24.1-2.6c-83.7,0.7-170.8,15.8-239.9,64.1
		c-69.1,48.4-115.8,132.6-104,210"/>
	<path class="st0" d="M667.7,764.8c2.6,2.2,6.2,1.9,9.4,1.4c24.6-3.8,47.8-13.5,67.1-28c-19.9-3.2-40.6-6.9-61.2-15.2
		c-14.3-5.7-28.5-13.6-41.9-24.9c-18.2-15.3-33.6-36.1-46.2-59.6c-9.3-17.4-17.1-36.2-23.8-55.5c-6.1-17.5-11.6-35.5-16.6-53.8
		c-10.6-38.6-19.6-78.8-28.9-117.5c-4.1-17.1-8.4-33.9-12.6-49.4c-0.5-1.8-1-3.7-1.5-5.5c-3.4-12.2-6.6-23.7-9.9-35.1
		c-7.1-24.7-14.5-48.8-26.2-71.7c-5.3-10.4-12.3-21.6-25-26.2c-7.4-2.6-15.8-2.3-24-2.1c-81.7,1.6-166.6,16.4-234.2,63.5
		C124.8,332.4,78.7,413.9,88.6,488.5"/>
	<path class="st0" d="M645.2,764.5c3,2.5,7.3,2.1,11,1.5c28.7-4.8,55.9-16.5,78.5-33.7c-18.1-3.9-37.1-8.3-56.1-17.2
		c-13.2-6.2-26.4-14.5-38.9-26.1c-17-15.7-31.3-36.8-43.1-60.4c-8.6-17.5-15.8-36.4-22.1-55.7c-5.7-17.6-10.8-35.6-15.6-54
		c-10.1-38.6-19.1-79-29-117.4c-4.4-17-9.1-33.6-13.8-48.7c-0.6-1.8-1.1-3.6-1.7-5.3c-3.8-11.9-7.5-22.8-11.2-33.7
		c-8.1-23.6-16.5-46.5-28.8-68.1c-5.6-9.8-12.9-20.4-25.7-24.5c-7.4-2.4-15.8-1.9-24-1.6c-79.6,2.5-162.4,17.1-228.5,62.9
		C130,328.4,84.4,407.1,92.6,478.9"/>
	<path class="st0" d="M622.6,764.1c3.5,2.8,8.3,2.4,12.6,1.6c32.8-5.7,63.9-19.4,89.8-39.4c-16.4-4.5-33.6-9.6-51.1-19.2
		c-12.1-6.6-24.3-15.3-35.9-27.2c-15.8-16.1-29.1-37.5-39.9-61.2c-8-17.6-14.6-36.6-20.4-56c-5.3-17.6-10-35.7-14.6-54.1
		c-9.6-38.7-18.6-79.2-29.2-117.3c-4.7-16.9-9.8-33.3-15.1-48c-0.6-1.7-1.3-3.5-1.9-5.2c-4.3-11.5-8.4-22-12.6-32.3
		c-9-22.5-18.4-44.1-31.5-64.4c-6-9.3-13.5-19.2-26.3-22.9c-7.4-2.2-15.8-1.5-23.9-1.1c-77.6,3.3-158.2,17.7-222.8,62.3
		C135.1,324.4,90.1,400.4,96.5,469.3"/>
	<path class="st0" d="M600.1,763.8c3.9,3.2,9.4,2.6,14.2,1.7c37-6.7,72-22.4,101.2-45.1c-14.7-5.2-30.1-11-46-21.2
		c-11-7.1-22.2-16.2-32.9-28.4c-14.6-16.6-26.9-38.2-36.8-62c-7.3-17.7-13.4-36.8-18.7-56.2c-4.9-17.7-9.3-35.8-13.6-54.3
		c-9.1-38.8-18.1-79.4-29.3-117.2c-5-16.8-10.5-33-16.3-47.3c-0.7-1.7-1.4-3.4-2.1-5c-4.7-11.1-9.3-21.1-13.9-30.9
		c-10-21.3-20.3-41.7-34.2-60.7c-6.3-8.7-14.1-17.9-26.9-21.2c-7.4-1.9-15.8-1.1-23.9-0.6c-75.5,4.2-154,18.4-217.1,61.7
		c-63.3,43.4-107.7,116.6-103.1,182.7"/>
	<path class="st0" d="M577.5,763.5c4.3,3.5,10.4,2.8,15.7,1.8c41.1-7.7,80.1-25.3,112.5-50.8c-12.9-5.8-26.7-12.3-41-23.2
		c-9.9-7.5-20.2-17-30-29.5c-13.3-17-24.6-38.8-33.7-62.9c-6.7-17.8-12.2-36.9-17.1-56.5c-4.4-17.7-8.5-35.9-12.6-54.4
		c-8.6-38.9-17.6-79.5-29.5-117.1c-5.3-16.7-11.2-32.7-17.5-46.5c-0.8-1.7-1.5-3.3-2.3-4.9c-5.1-10.7-10.2-20.2-15.3-29.5
		c-11-20.2-22.2-39.4-36.8-57.1c-6.7-8.1-14.7-16.7-27.5-19.6c-7.4-1.7-15.7-0.7-23.9-0.1c-73.4,5-149.7,19.1-211.4,61.1
		c-61.8,42.1-105.7,112.6-102.9,175.8"/>
	<path class="st0" d="M555,763.1c4.8,3.8,11.5,3,17.3,1.9c45.3-8.7,88.1-28.2,123.9-56.5c-11.2-6.5-23.2-13.7-35.9-25.2
		c-8.8-8-18.1-17.9-27-30.7c-12.1-17.4-22.4-39.5-30.6-63.7c-6.1-17.9-11-37.1-15.4-56.7c-4-17.8-7.7-36-11.6-54.5
		c-8.1-39-17.1-79.7-29.6-117c-5.5-16.5-11.9-32.4-18.7-45.8c-0.8-1.6-1.6-3.2-2.5-4.7c-5.5-10.4-11.1-19.4-16.6-28.1
		c-12-19.1-24.1-37-39.5-53.4c-7-7.5-15.3-15.4-28.2-18c-7.5-1.5-15.7-0.3-23.8,0.4c-71.4,5.7-145.5,19.7-205.8,60.5
		c-60.4,40.8-103.7,108.6-102.7,169"/>
	<path class="st0" d="M532.4,762.8c5.2,4.1,12.5,3.3,18.9,2c49.4-9.6,96.2-31.2,135.2-62.2c-9.4-7.2-19.7-15-30.9-27.2
		c-7.7-8.4-16-18.7-24-31.8c-10.9-17.8-20.2-40.2-27.5-64.5c-5.4-18.1-9.8-37.3-13.7-56.9c-3.6-17.8-7-36.1-10.6-54.7
		c-7.6-39.1-16.6-79.9-29.8-116.9c-5.8-16.4-12.6-32.1-20-45.1c-0.9-1.6-1.8-3.1-2.6-4.6c-6-10-12-18.5-18-26.7
		c-12.9-17.9-26.1-34.6-42.2-49.7c-7.3-6.9-15.9-14.2-28.8-16.3c-7.5-1.2-15.7,0.1-23.8,0.9c-69.3,6.5-141.3,20.4-200.1,59.9
		C155.8,308.5,113.1,373.4,112.3,431"/>
	<path class="st0" d="M509.9,762.5c5.6,4.5,13.6,3.5,20.5,2.1C584,754,634.6,730.5,677,696.7c-7.7-7.8-16.2-16.4-25.8-29.2
		c-6.7-8.9-14-19.6-21-33c-9.6-18.2-17.9-40.8-24.4-65.3c-4.8-18.2-8.5-37.5-12-57.2c-3.2-17.9-6.2-36.2-9.6-54.8
		C577,418,568,377.2,554.2,340.4c-6.1-16.3-13.3-31.8-21.2-44.4c-0.9-1.5-1.9-3-2.8-4.4c-6.4-9.6-12.9-17.6-19.3-25.3
		c-13.9-16.8-28-32.3-44.8-46.1c-7.7-6.3-16.5-13-29.4-14.7c-7.5-1-15.7,0.5-23.7,1.4c-67.2,7.2-137.1,21-194.4,59.3
		c-57.5,38.3-99.7,100.5-102.2,155.3"/>
	<path class="st0" d="M487.3,762.1c6.1,4.8,14.6,3.7,22.1,2.2c57.7-11.6,112.3-37.1,157.9-73.6c-5.9-8.5-12.7-17.7-20.8-31.2
		c-5.6-9.3-11.9-20.5-18.1-34.2c-8.4-18.6-15.7-41.5-21.3-66.1c-4.1-18.3-7.3-37.7-10.3-57.4c-2.7-17.9-5.4-36.3-8.6-55
		c-6.6-39.3-15.6-80.2-30.1-116.7c-6.4-16.2-14-31.5-22.4-43.7c-1-1.5-2-2.9-3-4.2c-6.8-9.3-13.8-16.8-20.7-23.9
		c-14.9-15.6-29.9-29.9-47.5-42.4c-8-5.7-17.1-11.7-30-13c-7.5-0.8-15.6,0.9-23.7,1.8c-65.2,7.9-132.9,21.7-188.7,58.7
		c-56,37.1-97.7,96.5-102,148.4"/>
	<path class="st0" d="M464.8,761.8c6.5,5.1,15.7,4,23.7,2.3c61.9-12.6,120.4-40,169.3-79.3c-4.2-9.1-9.2-19-15.7-33.1
		c-4.5-9.7-9.8-21.3-15.1-35.3c-7.2-19.1-13.5-42.2-18.2-66.9c-3.5-18.4-6.1-37.9-8.6-57.7c-2.3-18-4.7-36.4-7.6-55.1
		c-6.1-39.3-15.2-80.4-30.2-116.6c-6.7-16.1-14.7-31.1-23.6-43c-1.1-1.4-2.1-2.8-3.2-4.1c-7.3-8.9-14.7-15.9-22-22.5
		c-15.9-14.5-31.8-27.5-50.2-38.7c-8.4-5.1-17.7-10.5-30.7-11.4c-7.5-0.5-15.6,1.3-23.7,2.3c-63.1,8.5-128.7,22.4-183,58
		c-54.6,35.8-95.6,92.5-101.8,141.6"/>
	<path class="st0" d="M442.2,761.5c7,5.4,16.7,4.2,25.3,2.4c66-13.5,128.5-43,180.6-85c-2.4-9.8-5.7-20.4-10.7-35.1
		c-3.4-10.2-7.7-22.2-12.1-36.5c-6-19.5-11.2-42.8-15.1-67.8c-2.8-18.5-4.9-38-7-57.9c-1.9-18.1-3.9-36.5-6.6-55.2
		c-5.6-39.4-14.7-80.6-30.4-116.5c-7-15.9-15.4-30.8-24.8-42.3c-1.1-1.4-2.3-2.7-3.4-3.9c-7.7-8.5-15.6-15-23.4-21.2
		c-16.8-13.4-33.8-25.1-52.8-35.1c-8.7-4.5-18.3-9.3-31.3-9.8c-7.5-0.3-15.6,1.6-23.6,2.8c-61,9.1-124.4,23-177.3,57.4
		c-53.1,34.5-93.6,88.5-101.5,134.8"/>
	<path class="st0" d="M419.7,761.2c7.4,5.7,17.8,4.4,26.8,2.5c70.2-14.5,136.5-45.9,192-90.7c-0.7-10.4-2.2-21.7-5.6-37.1
		c-2.3-10.6-5.7-23-9.1-37.6c-4.7-19.9-9-43.5-12-68.6c-2.2-18.6-3.7-38.2-5.3-58.2c-1.5-18.1-3.1-36.6-5.6-55.4
		c-5.1-39.5-14.2-80.8-30.5-116.4c-7.3-15.8-16.1-30.5-26.1-41.5c-1.2-1.3-2.4-2.6-3.6-3.8c-8.1-8.2-16.5-14.2-24.7-19.8
		c-17.8-12.2-35.7-22.8-55.5-31.4c-9-3.9-18.9-8-31.9-8.1c-7.5-0.1-15.6,2-23.6,3.3c-58.9,9.7-120.2,23.7-171.7,56.8
		c-51.7,33.3-91.6,84.5-101.3,127.9"/>
	<path class="st0" d="M397.1,760.8c7.8,6.1,18.8,4.6,28.4,2.6c74.3-15.5,144.6-48.9,203.3-96.4c1-11.1,1.3-23.1-0.6-39.1
		c-1.3-11-3.6-23.9-6.2-38.8c-3.5-20.3-6.7-44.2-8.9-69.4c-1.5-18.8-2.5-38.4-3.6-58.4c-1-18.2-2.4-36.7-4.6-55.5
		c-4.6-39.6-13.7-80.9-30.7-116.4c-7.5-15.7-16.8-30.2-27.3-40.8c-1.3-1.3-2.5-2.5-3.8-3.6c-8.6-7.8-17.4-13.3-26-18.4
		c-18.8-11.1-37.6-20.4-58.1-27.7c-9.4-3.3-19.5-6.8-32.6-6.5c-7.6,0.2-15.5,2.4-23.5,3.8c-56.9,10.2-116,24.3-166,56.2
		c-50.2,32-89.6,80.5-101.1,121.1"/>
	<path class="st0" d="M374.6,760.5c8.3,6.4,19.9,4.9,30,2.7c78.4-16.5,152.7-51.8,214.7-102.1c2.8-11.7,4.8-24.4,4.5-41.1
		c-0.2-11.5-1.5-24.7-3.2-40c-2.3-20.7-4.5-44.9-5.8-70.2c-0.9-18.9-1.2-38.6-1.9-58.7c-0.6-18.2-1.6-36.8-3.6-55.6
		c-4.1-39.7-13.2-81.1-30.8-116.3c-7.8-15.6-17.5-29.9-28.5-40.1c-1.3-1.2-2.6-2.4-4-3.5c-9-7.4-18.3-12.4-27.4-17
		c-19.8-10-39.5-18-60.8-24.1c-9.7-2.7-20.1-5.5-33.2-4.8c-7.6,0.4-15.5,2.7-23.5,4.3c-54.8,10.8-111.8,25-160.3,55.6
		C192,280.5,153.2,326.2,140,364"/>
	<path class="st0" d="M352,760.2c8.7,6.7,20.9,5.1,31.6,2.8c82.6-17.4,160.7-54.8,226-107.8c4.5-12.4,8.2-25.7,9.5-43.1
		c0.9-11.9,0.5-25.6-0.2-41.1c-1.1-21.1-2.3-45.5-2.7-71c-0.3-19,0-38.8-0.2-58.9c-0.2-18.3-0.8-36.9-2.6-55.8
		c-3.6-39.8-12.7-81.3-31-116.2c-8.1-15.5-18.2-29.6-29.7-39.4c-1.4-1.2-2.8-2.3-4.2-3.3c-9.4-7.1-19.2-11.5-28.7-15.6
		c-20.7-8.8-41.4-15.7-63.5-20.4c-10-2.2-20.7-4.3-33.8-3.2c-7.6,0.6-15.5,3.1-23.4,4.8c-52.8,11.2-107.6,25.7-154.6,55
		c-47.3,29.5-85.6,72.5-100.6,107.4"/>
	<path class="st0" d="M329.5,759.8c9.1,7,22,5.3,33.2,2.9c86.7-18.4,168.8-57.7,237.3-113.5c6.3-13,11.7-27.1,14.6-45.1
		c2-12.4,2.6-26.4,2.8-42.3c0.2-21.6,0-46.2,0.4-71.8c0.4-19.1,1.2-39,1.5-59.1c0.2-18.3-0.1-37-1.6-55.9
		c-3.1-39.9-12.2-81.5-31.1-116.1c-8.4-15.4-18.9-29.3-31-38.7c-1.4-1.1-2.9-2.2-4.3-3.2c-9.9-6.7-20.1-10.7-30.1-14.2
		c-21.7-7.7-43.4-13.3-66.1-16.7c-10.4-1.6-21.3-3.1-34.4-1.6c-7.6,0.9-15.5,3.5-23.4,5.3c-50.7,11.7-103.4,26.3-148.9,54.4
		c-45.8,28.2-83.6,68.5-100.4,100.5"/>
	<path class="st0" d="M306.9,759.5c9.6,7.3,23,5.5,34.8,3c90.9-19.4,176.9-60.7,248.7-119.2c8-13.7,15.2-28.4,19.6-47.1
		c3.1-12.8,4.7-27.3,5.7-43.4c1.4-22,2.2-46.9,3.5-72.7c1-19.2,2.4-39.1,3.1-59.4c0.6-18.4,0.7-37.1-0.5-56.1
		c-2.6-39.9-11.7-81.6-31.3-116c-8.7-15.2-19.6-29-32.2-38c-1.5-1.1-3-2.1-4.5-3c-10.3-6.3-21-9.8-31.4-12.8
		c-22.7-6.5-45.3-10.9-68.8-13.1c-10.7-1-21.9-1.8-35.1,0.1c-7.6,1.1-15.4,3.8-23.4,5.8c-48.7,12.1-99.2,27-143.3,53.8
		c-44.4,27-81.5,64.5-100.2,93.7"/>
	<path class="st0" d="M284.4,759.2c10,7.7,24.1,5.8,36.4,3.1c95-20.4,184.9-63.6,260-124.9c9.8-14.3,18.7-29.8,24.7-49.1
		c4.1-13.2,6.8-28.1,8.7-44.6c2.6-22.4,4.4-47.5,6.6-73.5c1.7-19.3,3.6-39.3,4.8-59.6c1.1-18.4,1.5-37.2,0.5-56.2
		c-2.1-40-11.2-81.8-31.4-115.9c-9-15.1-20.3-28.7-33.4-37.3c-1.6-1-3.1-2-4.7-2.9c-10.7-6-21.9-8.9-32.8-11.4
		c-23.7-5.4-47.2-8.6-71.5-9.4c-11.1-0.4-22.5-0.6-35.7,1.7c-7.6,1.3-15.4,4.2-23.3,6.3c-46.6,12.5-94.9,27.6-137.6,53.2
		c-42.9,25.7-79.5,60.5-99.9,86.8"/>
	<path class="st0" d="M261.8,758.9c10.4,8,25.1,6,37.9,3.2c99.2-21.4,193-66.5,271.4-130.6c11.5-15,22.1-31.1,29.8-51.1
		c5.2-13.7,8.8-29,11.7-45.7c3.9-22.8,6.7-48.2,9.7-74.3c2.3-19.5,4.8-39.5,6.5-59.9c1.5-18.5,2.2-37.3,1.5-56.3
		c-1.6-40.1-10.7-82-31.6-115.8c-9.3-15-21-28.4-34.6-36.5c-1.6-1-3.3-1.9-4.9-2.7c-11.2-5.6-22.8-8.1-34.1-10
		c-24.6-4.3-49.1-6.2-74.1-5.7c-11.4,0.2-23.1,0.6-36.3,3.4c-7.6,1.6-15.4,4.5-23.3,6.8c-44.6,12.9-90.7,28.3-131.9,52.6
		c-41.5,24.4-77.5,56.5-99.7,80"/>
	<path class="st0" d="M239.3,758.5c10.9,8.3,26.2,6.2,39.5,3.3c103.3-22.3,201.1-69.5,282.7-136.3c13.3-15.6,25.6-32.5,34.8-53.1
		c6.3-14.1,10.9-29.8,14.6-46.9c5.1-23.2,8.9-48.9,12.8-75.1c3-19.6,6.1-39.7,8.2-60.1c1.9-18.5,3-37.4,2.5-56.5
		c-1.1-40.2-10.2-82.2-31.7-115.7c-9.5-14.9-21.7-28.1-35.8-35.8c-1.7-0.9-3.4-1.8-5.1-2.5c-11.6-5.2-23.7-7.2-35.5-8.6
		c-25.6-3.1-51.1-3.8-76.8-2.1c-11.7,0.8-23.7,1.9-36.9,5c-7.7,1.8-15.4,4.8-23.2,7.3c-42.6,13.2-86.5,28.9-126.2,52
		c-40,23.2-75.5,52.5-99.5,73.2"/>
	<path class="st0" d="M216.7,758.2c11.3,8.6,27.2,6.5,41.1,3.4c107.5-23.3,209.1-72.4,294.1-142.1c15-16.3,29.1-33.8,39.9-55
		c7.3-14.6,13-30.7,17.6-48.1c6.3-23.6,11.1-49.5,15.9-75.9c3.6-19.7,7.3-39.9,9.9-60.4c2.3-18.6,3.8-37.5,3.5-56.6
		c-0.6-40.3-9.8-82.3-31.9-115.6c-9.8-14.8-22.4-27.8-37.1-35.1c-1.7-0.9-3.5-1.7-5.3-2.4c-12-4.9-24.6-6.3-36.8-7.2
		c-26.6-2-53-1.5-79.5,1.6c-12.1,1.4-24.4,3.1-37.6,6.6c-7.7,2-15.4,5.2-23.2,7.8c-40.6,13.5-82.3,29.6-120.5,51.4
		c-38.6,21.9-73.5,48.5-99.2,66.3"/>
	<path class="st0" d="M194.2,757.9c11.8,9,28.3,6.7,42.7,3.5c111.6-24.3,217.2-75.4,305.4-147.8c16.8-16.9,32.6-35.1,44.9-57
		c8.4-15,15-31.5,20.6-49.2c7.5-24.1,13.4-50.2,19-76.7c4.3-19.8,8.5-40.1,11.5-60.6c2.8-18.6,4.5-37.6,4.5-56.8
		c-0.2-40.4-9.3-82.5-32-115.5c-10.1-14.7-23.1-27.5-38.3-34.4c-1.8-0.8-3.6-1.6-5.5-2.2c-12.4-4.5-25.5-5.5-38.1-5.8
		c-27.6-0.9-54.9,0.9-82.1,5.3c-12.4,2-25,4.4-38.2,8.3c-7.7,2.3-15.4,5.5-23.2,8.2c-38.7,13.8-78.1,30.3-114.8,50.7
		c-37.1,20.7-71.5,44.5-99,59.5"/>
	<path class="st0" d="M171.6,757.5c12.2,9.3,29.3,6.9,44.3,3.6c115.7-25.3,225.3-78.3,316.8-153.5c18.5-17.6,36.1-36.5,50-59
		c9.5-15.4,17.1-32.4,23.6-50.4c8.8-24.5,15.6-50.9,22.1-77.6c4.9-19.9,9.7-40.2,13.2-60.9c3.2-18.7,5.3-37.7,5.5-56.9
		c0.3-40.5-8.8-82.7-32.2-115.4c-10.4-14.5-23.8-27.1-39.5-33.7c-1.9-0.8-3.8-1.5-5.7-2.1c-12.9-4.1-26.4-4.6-39.5-4.5
		c-28.5,0.3-56.8,3.3-84.8,9c-12.8,2.6-25.6,5.6-38.8,9.9c-7.7,2.5-15.4,5.8-23.1,8.7c-36.7,14.1-73.9,30.9-109.2,50.1
		c-35.7,19.4-69.5,40.5-98.8,52.6"/>
	<path class="st0" d="M149.1,757.2c12.6,9.6,30.4,7.1,45.9,3.7c119.9-26.2,233.3-81.3,328.1-159.2c20.2-18.2,39.5-37.8,55-61
		c10.6-15.9,19.2-33.2,26.5-51.5c10-24.9,17.9-51.5,25.3-78.4c5.5-20,10.9-40.4,14.9-61.1c3.6-18.8,6.1-37.8,6.5-57
		c0.8-40.6-8.3-82.9-32.3-115.3c-10.7-14.4-24.5-26.8-40.7-33c-1.9-0.7-3.9-1.4-5.9-1.9c-13.3-3.7-27.3-3.7-40.8-3.1
		c-29.5,1.4-58.7,5.7-87.5,12.6c-13.1,3.2-26.2,6.8-39.5,11.6c-7.7,2.7-15.4,6.1-23.1,9.2c-34.8,14.3-69.6,31.6-103.5,49.5
		c-34.2,18.1-67.5,36.5-98.6,45.8"/>
	<path class="st0" d="M126.5,756.9c13.1,9.9,31.4,7.4,47.5,3.9c124-27.2,241.4-84.2,339.5-164.9c22-18.9,43-39.2,60.1-63
		c11.7-16.3,21.2-34.1,29.5-52.7c11.2-25.3,20.1-52.2,28.4-79.2c6.2-20.1,12.1-40.6,16.6-61.3c4-18.8,6.8-37.9,7.5-57.2
		c1.3-40.6-7.8-83-32.5-115.2c-11-14.3-25.2-26.5-42-32.3c-2-0.7-4-1.3-6-1.8c-13.7-3.4-28.2-2.9-42.2-1.7
		c-30.5,2.6-60.7,8-90.1,16.3c-13.4,3.8-26.8,8.1-40.1,13.2c-7.7,3-15.4,6.3-23,9.7c-32.9,14.5-65.4,32.2-97.8,48.9
		c-32.8,16.9-65.4,32.4-98.3,38.9"/>
	<path class="st0" d="M104,756.6c13.5,10.2,32.5,7.6,49,4c128.2-28.2,249.5-87.2,350.8-170.6c23.7-19.5,46.5-40.5,65.1-65
		c30-39.6,48.1-86.8,64-133.9c13-38.6,24.9-78.2,26.8-118.9S652.3,189,627,157c-11.2-14.2-25.9-26.2-43.2-31.5
		c-16-4.9-33.2-3.8-49.8-1.9c-54.2,6.4-107.3,21.6-156.5,45C315,198.3,256.2,241.7,187.3,249"/>
</g>
<g>
</g>
<g>
</g>
<g>
</g>
<g>
</g>
<g>
</g>
<g>
</g>
<g>
</g>
<g>
</g>
<g>
</g>
<g>
</g>
<g>
</g>
</svg>
