<?xml version="1.0"?>
<svg xmlns="http://www.w3.org/2000/svg" xmlns:xlink="http://www.w3.org/1999/xlink" xmlns:svgjs="http://svgjs.com/svgjs" version="1.1" width="512" height="512" x="0" y="0" viewBox="0 0 511.908 511.908" style="enable-background:new 0 0 512 512" xml:space="preserve" class=""><g><g xmlns="http://www.w3.org/2000/svg"><path d="m483.397 28.511c-38.016-38.015-99.871-38.015-137.886 0l-317 317c-38.015 38.015-38.015 99.871 0 137.886 19.008 19.007 43.975 28.511 68.943 28.511s49.936-9.504 68.943-28.511l317-317c38.014-38.015 38.014-99.871 0-137.886zm-444.279 444.279c-32.166-32.167-32.166-84.506 0-116.673 32.168-32.166 84.507-32.165 116.673 0 32.166 32.167 32.166 84.506 0 116.673-16.085 16.085-37.208 24.126-58.336 24.125-21.125-.002-42.256-8.044-58.337-24.125zm433.672-317-280.325 280.326c7.148-31.586-1.525-66.062-26.068-90.605s-59.019-33.215-90.605-26.068l280.326-280.326c32.168-32.166 84.507-32.165 116.673 0 32.165 32.167 32.165 84.506-.001 116.673z" fill="#ffffff" data-original="#000000" style=""/><path d="m145.183 366.724c-21.792-21.792-55.522-26.077-82.026-10.425-3.566 2.106-4.75 6.706-2.644 10.272 2.107 3.566 6.707 4.751 10.272 2.644 20.609-12.172 46.842-8.835 63.792 8.115 9.916 9.916 15.377 23.1 15.377 37.123s-5.461 27.207-15.377 37.123-23.1 15.377-37.123 15.377-27.207-5.461-37.123-15.377c-16.95-16.95-20.288-43.183-8.115-63.792 2.106-3.566.922-8.166-2.644-10.272s-8.165-.921-10.272 2.644c-15.653 26.504-11.367 60.235 10.425 82.026 12.749 12.749 29.7 19.771 47.729 19.771s34.98-7.021 47.729-19.771 19.771-29.7 19.771-47.729-7.022-34.98-19.771-47.729z" fill="#ffffff" data-original="#000000" style=""/></g></g></svg>
